# xmcd
#
# Track frame offsets:
#	150
#	11199
#	22270
#	36466
#	46133
#	59857
#	73993
#	90710
#	102559
#	114312
#	129008
#	144126
#
# Disc length: 2143 seconds
#
# Revision: 1
# Processed by: cddbd v1.5.1PL2 Copyright (c) Steve Scherf et al.
# Submitted via: audiograbber 1.83.01
#
DISCID=ae085d0c
DTITLE=RENATO FIRME - É PROIBIDO COCHILAR
DYEAR=1900
DGENRE=
TTITLE0=É PROIBIDO COCHILAR
TTITLE1=FORRÓ DE CABO A RABO
TTITLE2=CIGANA
TTITLE3=O BICHINHO DO FORRÓ
TTITLE4=HOMEM DE SAIA
TTITLE5=PERIGOSO
TTITLE6=SE VOCÊ NÃO ME QUER MAIS
TTITLE7=PETROLINA-JOAZEIRO
TTITLE8=MAIS UMA DE AMOR
TTITLE9=ASA BRANCA
TTITLE10=NA HORA DO ADEUS
TTITLE11=O SOFÁ
EXTD=
EXTT0=
EXTT1=
EXTT2=
EXTT3=
EXTT4=
EXTT5=
EXTT6=
EXTT7=
EXTT8=
EXTT9=
EXTT10=
EXTT11=
PLAYORDER=
